Coordinates
version=1
nRows=5
nColumns=40
inDegrees=yes

Units are S.I. units (second, meters, Newtons, ...)
Angles are in degrees.

endheader
time	pelvis_tilt	pelvis_list	pelvis_rotation	pelvis_tx	pelvis_ty	pelvis_tz	hip_flexion_r	hip_adduction_r	hip_rotation_r	knee_angle_r	knee_angle_r_beta	ankle_angle_r	subtalar_angle_r	mtp_angle_r	hip_flexion_l	hip_adduction_l	hip_rotation_l	knee_angle_l	knee_angle_l_beta	ankle_angle_l	subtalar_angle_l	mtp_angle_l	lumbar_extension	lumbar_bending	lumbar_rotation	arm_flex_r	arm_add_r	arm_rot_r	elbow_flex_r	pro_sup_r	wrist_flex_r	wrist_dev_r	arm_flex_l	arm_add_l	arm_rot_l	elbow_flex_l	pro_sup_l	wrist_flex_l	wrist_dev_l
     33.51300000	     -4.22258876	     -6.51421429	      5.32342472	      0.78532080	      0.91816250	      0.47167476	     -0.30856626	      4.91965447	    -17.64153273	     10.92984101	     10.92984101	     17.30971996	      1.77750999	     -4.04364214	     31.67353295	     -8.14633838	     -0.90689040	     22.18891201	     22.18891201	      4.13672486	    -10.05152676	      5.85684965	     -7.97693673	      6.00956212	      3.91933107	     32.44158384	    -14.65763069	      4.95881803	     91.95731570	     44.26397697	      0.00000000	      0.00000000	    -13.16767115	     -8.06193449	     -0.93837658	     34.46524743	     45.35146843	      0.00000000	      0.00000000
     33.52600000	     -4.24671219	     -6.56951918	      5.00654820	      0.78729280	      0.91688311	      0.47064269	     -0.65988723	      4.89291543	    -17.01382756	     11.36980499	     11.36980499	     17.94711828	      1.33416177	     -3.38797610	     31.47972204	     -8.17991153	     -0.52904460	     23.09303349	     23.09303349	      3.36401907	    -11.44810655	      5.38193600	     -7.77272098	      5.71045352	      3.94890162	     32.07819077	    -14.47884462	      5.72603093	     92.96176940	     44.23184614	      0.00000000	      0.00000000	    -12.82931619	     -8.22013657	     -1.20165995	     34.74595318	     45.40270194	      0.00000000	      0.00000000
     33.53900000	     -4.20855185	     -6.56890905	      4.70223734	      0.78925679	      0.91601720	      0.46949703	     -1.18816177	      4.79455569	    -16.62487160	     11.58454505	     11.58454505	     18.28045561	      1.38516644	     -3.44148018	     31.15713532	     -8.25762318	     -0.57645828	     23.87379292	     23.87379292	      3.16998536	    -11.88985412	      5.32023821	     -7.62518086	      5.37614626	      3.87783099	     31.75573441	    -14.12862490	      5.98403452	     93.03205711	     44.22197136	      0.00000000	      0.00000000	    -12.30161761	     -8.45231705	     -1.25652824	     34.90843328	     45.41837236	      0.00000000	      0.00000000
     33.55200000	     -4.14824407	     -6.66063316	      4.42054273	      0.79093095	      0.91512334	      0.46810855	     -1.32591979	      4.72818357	    -15.89624094	     12.56313571	     12.56313571	     18.98898023	      0.45699050	     -2.03755546	     31.08540534	     -8.24566905	      0.07000163	     25.04650157	     25.04650157	      2.90511320	    -13.47888645	      4.81411678	     -7.63257675	      5.14814448	      4.05366565	     31.21348462	    -14.35795750	      7.16458499	     94.33545436	     44.18803302	      0.00000000	      0.00000000	    -11.78376436	     -8.51532878	     -1.87872950	     35.00918830	     45.52246466	      0.00000000	      0.00000000
     33.56500000	     -4.13986995	     -6.63361360	      4.17132034	      0.79246356	      0.91465475	      0.46652579	     -1.43004196	      4.48114597	    -15.47125503	     13.45622406	     13.45622406	     19.23937029	     -0.02102030	     -1.78834678	     30.91360533	     -8.16969938	      0.31709147	     25.91316317	     25.91316317	      3.07656469	    -14.23879083	      4.71927440	     -7.56550086	      4.81185564	      3.98186271	     30.70151275	    -14.11392692	      7.72894931	     94.57605727	     44.17774732	      0.00000000	      0.00000000	    -11.11369980	     -8.72005722	     -2.10184769	     35.05928932	     45.56550045	      0.00000000	      0.00000000
